# xmcd CD database file
#
# Track frame offsets:
#	150
#	8657
#	22690
#	33470
#	48597
#	61825
#	76467
#	89787
#	105625
#	122417
#	140025
#	154040
#	167195
#	178657
#	190157
#	205850
#	221455
#	237157
#
# Disc length: 3360 seconds
#
# Revision: 4
# Processed by: cddbd v1.5.2PL0 Copyright (c) Steve Scherf et al.
# Submitted via: CDex 1.80
#
DISCID=ed0d1e12
DTITLE=The Slim Dusty Family - Live Across Australia
DYEAR=1986
DGENRE=Australian Country
TTITLE0=Foggy Mountain Breakdown - TCB
TTITLE1=Kelly's Offsider - Joy
TTITLE2=Middleston's Rouseabout - Slim
TTITLE3=The Front Row - Slim
TTITLE4=Give My Regards To Edna - Slim
TTITLE5=A Fool Such As I - Anne
TTITLE6=Crying Time - Anne
TTITLE7=I'm Thinking Tonight Of My Blue Eyes - Anne
TTITLE8=Orange Blossom Special - TCB
TTITLE9=Good Hearted Woman - David
TTITLE10=Last Train To Nowhere - David
TTITLE11=Luxury Liner - David And Anne
TTITLE12=Gymkhana Yodel - McKean Sisters
TTITLE13=I Need Someone To Hold Me When I Cry - Heather
TTITLE14=Sisters - McKean
TTITLE15=Leave Him In The Long Yard - Slim
TTITLE16=One Truckie's Epitaph - Slim
TTITLE17=Glory Bound Train - Slim
EXTD=1986 Slim Dusty Entiprises 1996 EMI Music Australia YEAR: 1986
EXTT0=
EXTT1=
EXTT2=
EXTT3=
EXTT4=
EXTT5=
EXTT6=
EXTT7=
EXTT8=
EXTT9=
EXTT10=
EXTT11=
EXTT12=
EXTT13=
EXTT14=
EXTT15=
EXTT16=
EXTT17=
PLAYORDER=
